# xmcd CD database file
#
# Track frame offsets:
#	182
#	14135
#	27822
#	43260
#	57922
#	70947
#	81420
#	91345
#	104325
#	114140
#	123965
#	134635
#	142890
#	158527
#	170820
#	182070
#	193660
#	202840
#
# Disc length: 2861 seconds
#
# Revision: 1
# Processed by: cddbd v1.5.1PL0 Copyright (c) Steve Scherf et al.
# Submitted via: CDex 1.51
#
DISCID=fa0b2b12
DTITLE=Various Artist - Country Classics
DYEAR=1996
DGENRE=Country
TTITLE0=Lynn Anderson - Rose Garden
TTITLE1=Jimmy Dean - Big Bad John
TTITLE2=Melba Montgomery - No Charge
TTITLE3=Jeannie C. Riley - Harper Valley P.T.A
TTITLE4=Faron Young - It's Four In The Morning
TTITLE5=George Hamilton IV - Abilene
TTITLE6=Hank Locklin - Please Help Me I'm Falling
TTITLE7=Claude King - Wolverton Mountain
TTITLE8=Ned Miler - From A Jack To A King
TTITLE9=Dave Dudley - Cowboy Boots
TTITLE10=Little Jimmy Dickens - May The Bird Of Paradise Fly Up Your Nose
TTITLE11=Don Gibson - Blue Blue Day
TTITLE12=Red Simpson - I'm A Truck
TTITLE13=Johnny Paycheck - Take This Job And Shove It
TTITLE14=Stonewall Jackson - Waterloo
TTITLE15=Patsy Cline - Lonely Street
TTITLE16=Del Reeves - Goodtime Charlie's
TTITLE17=Skeeter Davis - The End Of The World
EXTD=YEAR: 1996
EXTT0=
EXTT1=
EXTT2=
EXTT3=
EXTT4=
EXTT5=
EXTT6=
EXTT7=
EXTT8=
EXTT9=
EXTT10=
EXTT11=
EXTT12=
EXTT13=
EXTT14=
EXTT15=
EXTT16=
EXTT17=
PLAYORDER=
